<svg xmlns="http://www.w3.org/2000/svg" xmlns:xlink="http://www.w3.org/1999/xlink" viewBox="0 0 261.76 226.69" width="32"><defs><linearGradient x1="50%" x2="8.503%" y1="0%" y2="100%" id="a"><stop stop-color="#41D1FF" offset="0%"/><stop stop-color="#BD34FE" offset="100%"/></linearGradient><linearGradient x1="50%" x2="43.376%" y1="0%" y2="100%" id="b"><stop stop-color="#FFEA83" offset="0%"/><stop stop-color="#FFDD35" offset="8.07%"/><stop stop-color="#FFA800" offset="100%"/></linearGradient></defs><path d="M255.15 37.24l-120.2 180.94c-1.15 1.74-3.48 2.42-5.22 1.28L2.3 132.37c-1.73-1.14-2.42-3.47-1.28-5.22L126.08 2.3c1.15-1.75 3.48-2.43 5.23-1.28zL255.15 37.24z" fill="url(#a)"/><path d="M237.57 59.09L133.76 188.76c-.68 1.02-2.06 1.41-3.1.86L24.83 147.81c-1.04-.54-1.45-1.92-.77-2.95l104.7-129.7c.68-1.02 2.06-1.41 3.1-.86z" fill="#fff"/></svg>
